<svg id="visual" viewBox="0 0 960 540" width="100%" preserveAspectRatio="none" xmlns="http://www.w3.org/2000/svg" xmlns:xlink="http://www.w3.org/1999/xlink" version="1.1"><rect x="0" y="0" width="960" height="540" fill="#d6dbdc"></rect><path d="M0 324L96 349L192 323L288 341L384 348L480 335L576 368L672 371L768 309L864 305L960 333L960 541L864 541L768 541L672 541L576 541L480 541L384 541L288 541L192 541L96 541L0 541Z" fill="#f2f2f2"></path><path d="M0 353L96 390L192 379L288 407L384 358L480 382L576 408L672 355L768 368L864 377L960 361L960 541L864 541L768 541L672 541L576 541L480 541L384 541L288 541L192 541L96 541L0 541Z" fill="#e5e6e4"></path><path d="M0 414L96 398L192 404L288 406L384 424L480 437L576 415L672 435L768 429L864 436L960 393L960 541L864 541L768 541L672 541L576 541L480 541L384 541L288 541L192 541L96 541L0 541Z" fill="#d8dbd6"></path><path d="M0 474L96 435L192 432L288 438L384 444L480 480L576 466L672 480L768 458L864 467L960 478L960 541L864 541L768 541L672 541L576 541L480 541L384 541L288 541L192 541L96 541L0 541Z" fill="#cbcfc8"></path><path d="M0 506L96 490L192 499L288 511L384 483L480 507L576 478L672 491L768 501L864 474L960 505L960 541L864 541L768 541L672 541L576 541L480 541L384 541L288 541L192 541L96 541L0 541Z" fill="#bec4ba"></path></svg>